<svg xmlns="http://www.w3.org/2000/svg" viewBox="0 0 80 16" width="80" height="16">
  <!-- Star rating: 3 filled (#ff9933), 2 empty (#D9D9D9) -->
  <defs>
    <symbol id="star-filled" viewBox="0 0 16 16">
      <polygon points="8,1 10,6 15,6 11,9.5 12.5,15 8,12 3.5,15 5,9.5 1,6 6,6" fill="#ff9933"/>
    </symbol>
    <symbol id="star-empty" viewBox="0 0 16 16">
      <polygon points="8,1 10,6 15,6 11,9.5 12.5,15 8,12 3.5,15 5,9.5 1,6 6,6" fill="#D9D9D9"/>
    </symbol>
  </defs>
  <use href="#star-filled" x="0" y="0" width="16" height="16"/>
  <use href="#star-filled" x="16" y="0" width="16" height="16"/>
  <use href="#star-filled" x="32" y="0" width="16" height="16"/>
  <use href="#star-empty" x="48" y="0" width="16" height="16"/>
  <use href="#star-empty" x="64" y="0" width="16" height="16"/>
</svg>
