<svg xmlns="http://www.w3.org/2000/svg" viewBox="0 0 16 16" width="16" height="16">
  <!-- Fire/flame icon for Red Alert threads, gradient from orange to red -->
  <defs>
    <linearGradient id="flameGrad" x1="0" y1="1" x2="0" y2="0">
      <stop offset="0%" stop-color="#FF8400"/>
      <stop offset="100%" stop-color="red"/>
    </linearGradient>
  </defs>
  <!-- Flame shape using path -->
  <path d="M8,14 C4,14 3,11 4,9 C4.5,8 5,7.5 5,6 C5.5,7 5.5,7.5 6,8 C6,6 7,4 8,2 C8,4 9,5 9,7 C9.5,6.5 9.5,5.5 10,5 C10,7 11,8 11,10 C11,12.5 10,14 8,14 Z" fill="url(#flameGrad)"/>
  <!-- Inner highlight -->
  <path d="M8,12 C6.5,12 6,10.5 6.5,9.5 C7,9 7,8.5 7.5,8 C7.5,9 8,9.5 8,10.5 C8.5,10 8.5,9 9,8.5 C9,9.5 9.5,10.5 9,12 C8.8,12.5 8.5,12 8,12 Z" fill="#FFD700" opacity="0.6"/>
</svg>
